# xmcd
#
# Track frame offsets:
#	183
#	11795
#	23960
#	36073
#	49058
#	64320
#	74323
#	88635
#	102843
#	114460
#	127260
#	138743
#	148993
#	165070
#
# Disc length: 2364 seconds
#
# Revision: 0
# Processed by: cddbd v1.4PL0 Copyright (c) Steve Scherf et al.
# Submitted via: dBpowerAMP V4.0
#
DISCID=ca093a0e
DTITLE=Howlin Wolf - Howlin For My Baby
DYEAR=1990
DGENRE=Blues
TTITLE0=Moanin at Midnight
TTITLE1=Spoonful
TTITLE2=Dorothy Mae
TTITLE3=I Asked For Water 
TTITLE4=Commit A Crime
TTITLE5=Shake for Me
TTITLE6=I Walked From Dalas
TTITLE7=My Life
TTITLE8=Howlin For My Darling
TTITLE9=Forty Four
TTITLE10=Sittin On Top Of the World
TTITLE11=Do The Do
TTITLE12=Blue Bird
TTITLE13=Going Back Home
EXTD=
EXTT0=
EXTT1=
EXTT2=
EXTT3=
EXTT4=
EXTT5=
EXTT6=
EXTT7=
EXTT8=
EXTT9=
EXTT10=
EXTT11=
EXTT12=
EXTT13=
PLAYORDER=
